<svg xmlns="http://www.w3.org/2000/svg" xmlns:xlink="http://www.w3.org/1999/xlink" width="500" zoomAndPan="magnify" viewBox="0 0 375 374.999991" height="500" preserveAspectRatio="xMidYMid meet" version="1.0"><defs><g/><clipPath id="e287b60594"><path d="M 50.71875 50.71875 L 324.28125 50.71875 L 324.28125 324.28125 L 50.71875 324.28125 Z M 50.71875 50.71875 " clip-rule="nonzero"/></clipPath><clipPath id="747181a465"><path d="M 187.5 324.28125 C 150.980469 324.28125 116.59375 310.066406 90.789062 284.210938 C 64.933594 258.40625 50.71875 224.019531 50.71875 187.5 C 50.71875 150.980469 64.933594 116.59375 90.789062 90.789062 C 116.59375 64.933594 150.980469 50.71875 187.5 50.71875 C 224.019531 50.71875 258.40625 64.933594 284.210938 90.789062 C 310.066406 116.648438 324.28125 150.980469 324.28125 187.5 C 324.28125 224.019531 310.066406 258.40625 284.210938 284.210938 C 258.40625 310.066406 224.019531 324.28125 187.5 324.28125 Z M 187.5 58.917969 C 153.167969 58.917969 120.859375 72.3125 96.585938 96.585938 C 72.3125 120.859375 58.917969 153.167969 58.917969 187.5 C 58.917969 221.832031 72.3125 254.140625 96.585938 278.414062 C 120.859375 302.6875 153.167969 316.082031 187.5 316.082031 C 221.832031 316.082031 254.140625 302.6875 278.414062 278.414062 C 302.6875 254.140625 316.082031 221.832031 316.082031 187.5 C 316.082031 153.167969 302.6875 120.859375 278.414062 96.585938 C 254.140625 72.3125 221.832031 58.917969 187.5 58.917969 Z M 187.5 58.917969 " clip-rule="nonzero"/></clipPath><clipPath id="7193b65949"><path d="M 64.484375 64.484375 L 310.484375 64.484375 L 310.484375 310.484375 L 64.484375 310.484375 Z M 64.484375 64.484375 " clip-rule="nonzero"/></clipPath><clipPath id="b227c19cf8"><path d="M 111.664062 160 L 263.164062 160 L 263.164062 263.164062 L 111.664062 263.164062 Z M 111.664062 160 " clip-rule="nonzero"/></clipPath><clipPath id="0fabac10d8"><path d="M 117 111.664062 L 258 111.664062 L 258 190 L 117 190 Z M 117 111.664062 " clip-rule="nonzero"/></clipPath><clipPath id="0db8add687"><path d="M 275.324219 196.484375 L 284.953125 196.484375 L 284.953125 206.113281 L 275.324219 206.113281 Z M 275.324219 196.484375 " clip-rule="nonzero"/></clipPath><clipPath id="a16a5d936b"><path d="M 280.136719 196.484375 C 277.480469 196.484375 275.324219 198.640625 275.324219 201.300781 C 275.324219 203.957031 277.480469 206.113281 280.136719 206.113281 C 282.796875 206.113281 284.953125 203.957031 284.953125 201.300781 C 284.953125 198.640625 282.796875 196.484375 280.136719 196.484375 Z M 280.136719 196.484375 " clip-rule="nonzero"/></clipPath><clipPath id="4cf6fbbbcf"><path d="M 90.046875 196.484375 L 99.675781 196.484375 L 99.675781 206.113281 L 90.046875 206.113281 Z M 90.046875 196.484375 " clip-rule="nonzero"/></clipPath><clipPath id="c444144394"><path d="M 94.863281 196.484375 C 92.203125 196.484375 90.046875 198.640625 90.046875 201.300781 C 90.046875 203.957031 92.203125 206.113281 94.863281 206.113281 C 97.519531 206.113281 99.675781 203.957031 99.675781 201.300781 C 99.675781 198.640625 97.519531 196.484375 94.863281 196.484375 Z M 94.863281 196.484375 " clip-rule="nonzero"/></clipPath></defs><g clip-path="url(#e287b60594)"><g clip-path="url(#747181a465)"><path fill="#8e6e1d" d="M 50.71875 50.71875 L 324.28125 50.71875 L 324.28125 324.28125 L 50.71875 324.28125 Z M 50.71875 50.71875 " fill-opacity="1" fill-rule="nonzero"/></g></g><g clip-path="url(#7193b65949)"><path fill="#060b37" d="M 302.898438 220.292969 C 299.777344 230.914062 295.015625 240.988281 289.105469 250.265625 C 284.226562 257.816406 278.679688 264.914062 272.445312 271.367188 C 271.636719 272.25 270.738281 273.039062 269.882812 273.871094 C 269.011719 274.6875 268.167969 275.535156 267.277344 276.332031 L 264.574219 278.679688 L 263.222656 279.855469 L 261.824219 280.972656 L 259.023438 283.207031 C 258.074219 283.933594 257.097656 284.617188 256.136719 285.328125 C 254.238281 286.78125 252.21875 288.058594 250.242188 289.402344 C 249.957031 289.59375 249.65625 289.792969 249.347656 290.003906 C 249.023438 290.199219 248.6875 290.398438 248.339844 290.609375 C 247.640625 291.027344 246.890625 291.476562 246.09375 291.953125 C 244.511719 292.945312 242.644531 293.878906 240.625 294.953125 C 240.117188 295.214844 239.609375 295.5 239.074219 295.757812 C 238.535156 296.007812 237.984375 296.261719 237.421875 296.523438 C 236.300781 297.039062 235.140625 297.578125 233.941406 298.132812 C 231.484375 299.09375 228.921875 300.246094 226.125 301.140625 C 215.089844 305.140625 201.316406 307.617188 187.496094 307.671875 C 173.675781 307.617188 159.902344 305.140625 148.867188 301.140625 C 146.070312 300.246094 143.507812 299.09375 141.050781 298.132812 C 139.851562 297.578125 138.691406 297.039062 137.566406 296.523438 C 137.007812 296.261719 136.457031 296.007812 135.917969 295.757812 C 135.382812 295.5 134.871094 295.214844 134.367188 294.953125 C 132.347656 293.878906 130.476562 292.945312 128.898438 291.953125 C 128.101562 291.476562 127.351562 291.027344 126.652344 290.609375 C 126.304688 290.398438 125.96875 290.199219 125.644531 290.003906 C 125.332031 289.796875 125.035156 289.59375 124.75 289.402344 C 117.242188 284.484375 110.1875 278.894531 103.773438 272.613281 C 97.011719 265.859375 91.101562 258.292969 85.886719 250.269531 C 79.976562 240.988281 75.214844 230.914062 72.09375 220.292969 C 68.847656 209.710938 67.34375 198.605469 67.25 187.496094 C 67.34375 176.386719 68.847656 165.28125 72.09375 154.695312 C 75.214844 144.078125 79.976562 134.003906 85.886719 124.722656 C 90.765625 117.175781 96.3125 110.078125 102.546875 103.621094 C 103.351562 102.742188 104.253906 101.953125 105.109375 101.121094 C 105.980469 100.300781 106.824219 99.457031 107.714844 98.660156 L 110.414062 96.308594 L 111.765625 95.132812 L 113.167969 94.019531 L 115.964844 91.785156 C 116.914062 91.058594 117.894531 90.375 118.851562 89.664062 C 120.75 88.210938 122.769531 86.933594 124.75 85.589844 C 125.03125 85.398438 125.332031 85.195312 125.644531 84.988281 C 125.96875 84.792969 126.300781 84.59375 126.652344 84.382812 C 127.347656 83.964844 128.097656 83.515625 128.898438 83.039062 C 130.476562 82.046875 132.347656 81.113281 134.363281 80.039062 C 134.871094 79.777344 135.378906 79.492188 135.917969 79.234375 C 136.457031 78.984375 137.007812 78.726562 137.566406 78.46875 C 138.6875 77.949219 139.851562 77.414062 141.050781 76.859375 C 143.507812 75.898438 146.070312 74.746094 148.867188 73.851562 C 159.902344 69.847656 173.671875 67.375 187.496094 67.316406 C 201.316406 67.375 215.089844 69.847656 226.125 73.851562 C 228.921875 74.746094 231.480469 75.898438 233.941406 76.859375 C 235.140625 77.414062 236.300781 77.949219 237.421875 78.46875 C 237.984375 78.726562 238.535156 78.984375 239.074219 79.234375 C 239.609375 79.492188 240.117188 79.777344 240.625 80.039062 C 242.644531 81.109375 244.511719 82.046875 246.089844 83.039062 C 246.890625 83.515625 247.640625 83.964844 248.339844 84.382812 C 248.6875 84.589844 249.023438 84.792969 249.34375 84.988281 C 249.65625 85.195312 249.957031 85.398438 250.242188 85.589844 C 257.75 90.507812 264.804688 96.097656 271.214844 102.375 C 277.980469 109.132812 283.890625 116.699219 289.105469 124.722656 C 295.015625 134.003906 299.777344 144.078125 302.898438 154.695312 C 306.144531 165.28125 307.644531 176.386719 307.742188 187.496094 C 307.644531 198.605469 306.144531 209.710938 302.898438 220.292969 Z M 310.507812 187.414062 L 310.503906 187.402344 C 310.402344 176.0625 308.878906 164.710938 305.574219 153.890625 C 302.394531 143.035156 297.527344 132.734375 291.460938 123.269531 L 288.542969 118.882812 C 288.542969 118.882812 287.699219 117.707031 286.433594 115.9375 C 285.21875 114.132812 283.355469 111.90625 281.574219 109.621094 C 279.65625 107.449219 277.820312 105.207031 276.273438 103.679688 C 274.769531 102.109375 273.769531 101.0625 273.769531 101.0625 C 273.769531 101.0625 273.515625 100.804688 273.058594 100.367188 C 272.601562 99.925781 271.953125 99.296875 271.171875 98.542969 C 269.644531 96.992188 267.433594 95.121094 265.265625 93.203125 C 264.152344 92.277344 263.007812 91.390625 261.949219 90.539062 C 261.417969 90.117188 260.902344 89.707031 260.417969 89.320312 C 259.910156 88.957031 259.433594 88.613281 258.992188 88.292969 C 257.230469 87.023438 256.058594 86.175781 256.058594 86.175781 C 256.058594 86.175781 255.800781 85.96875 255.386719 85.699219 C 254.976562 85.425781 254.433594 85.0625 253.886719 84.695312 C 252.792969 83.964844 251.699219 83.230469 251.699219 83.230469 C 251.410156 83.035156 251.101562 82.828125 250.785156 82.613281 C 250.457031 82.414062 250.113281 82.207031 249.757812 81.992188 C 249.042969 81.5625 248.277344 81.101562 247.460938 80.609375 C 245.84375 79.59375 243.933594 78.632812 241.871094 77.535156 C 241.351562 77.265625 240.832031 76.972656 240.28125 76.707031 C 239.730469 76.449219 239.167969 76.1875 238.59375 75.921875 C 237.449219 75.390625 236.257812 74.839844 235.03125 74.269531 C 232.515625 73.28125 229.894531 72.105469 227.035156 71.183594 C 215.738281 67.082031 201.636719 64.539062 187.496094 64.484375 C 173.355469 64.539062 159.25 67.082031 147.957031 71.183594 C 145.097656 72.105469 142.472656 73.285156 139.957031 74.273438 C 138.730469 74.839844 137.542969 75.390625 136.394531 75.921875 C 135.824219 76.1875 135.257812 76.453125 134.707031 76.707031 C 134.160156 76.972656 133.636719 77.265625 133.121094 77.535156 C 131.054688 78.632812 129.144531 79.59375 127.53125 80.609375 C 126.714844 81.101562 125.949219 81.5625 125.234375 81.992188 C 124.878906 82.207031 124.535156 82.414062 124.207031 82.613281 C 123.886719 82.828125 123.582031 83.035156 123.289062 83.230469 C 123.289062 83.230469 122.199219 83.964844 121.105469 84.695312 C 120.558594 85.0625 120.011719 85.425781 119.601562 85.699219 C 119.1875 85.96875 118.933594 86.175781 118.933594 86.175781 C 118.933594 86.175781 117.757812 87.023438 115.996094 88.292969 C 115.554688 88.613281 115.078125 88.957031 114.574219 89.320312 C 114.085938 89.707031 113.574219 90.117188 113.042969 90.539062 C 111.984375 91.390625 110.839844 92.277344 109.726562 93.203125 C 107.554688 95.121094 105.34375 96.992188 103.820312 98.542969 C 103.039062 99.296875 102.390625 99.925781 101.933594 100.367188 C 101.476562 100.804688 101.222656 101.0625 101.222656 101.0625 C 101.222656 101.0625 100.222656 102.109375 98.71875 103.679688 C 97.171875 105.207031 95.332031 107.449219 93.417969 109.621094 C 91.636719 111.90625 89.773438 114.132812 88.554688 115.9375 C 87.289062 117.707031 86.445312 118.886719 86.445312 118.886719 L 83.53125 123.269531 C 77.464844 132.734375 72.597656 143.035156 69.417969 153.890625 C 66.113281 164.714844 64.585938 176.0625 64.488281 187.40625 L 64.484375 187.414062 L 64.484375 187.578125 L 64.488281 187.585938 C 64.585938 198.929688 66.113281 210.277344 69.417969 221.101562 C 72.597656 231.953125 77.464844 242.257812 83.53125 251.722656 L 86.449219 256.105469 C 86.449219 256.105469 87.292969 257.285156 88.554688 259.054688 C 89.773438 260.859375 91.636719 263.082031 93.417969 265.371094 C 95.332031 267.542969 97.171875 269.785156 98.71875 271.3125 C 100.222656 272.882812 101.222656 273.925781 101.222656 273.925781 C 101.222656 273.925781 101.476562 274.1875 101.933594 274.625 C 102.390625 275.0625 103.039062 275.695312 103.820312 276.449219 C 105.34375 278 107.554688 279.871094 109.726562 281.789062 C 110.839844 282.714844 111.984375 283.601562 113.042969 284.453125 C 113.574219 284.875 114.085938 285.28125 114.574219 285.671875 C 115.078125 286.035156 115.554688 286.378906 115.996094 286.695312 C 117.757812 287.96875 118.933594 288.816406 118.933594 288.816406 C 118.933594 288.816406 119.1875 289.023438 119.601562 289.289062 C 120.011719 289.566406 120.558594 289.929688 121.105469 290.296875 C 122.199219 291.027344 123.289062 291.757812 123.289062 291.757812 C 123.582031 291.957031 123.886719 292.164062 124.207031 292.378906 C 124.535156 292.578125 124.878906 292.785156 125.234375 293 C 125.949219 293.429688 126.714844 293.890625 127.53125 294.378906 C 129.144531 295.398438 131.058594 296.359375 133.121094 297.457031 C 133.640625 297.726562 134.160156 298.019531 134.707031 298.28125 C 135.261719 298.539062 135.824219 298.804688 136.394531 299.070312 C 137.542969 299.601562 138.734375 300.152344 139.960938 300.71875 C 142.472656 301.707031 145.097656 302.886719 147.957031 303.808594 C 159.25 307.910156 173.355469 310.449219 187.496094 310.507812 C 201.636719 310.449219 215.738281 307.910156 227.035156 303.808594 C 229.894531 302.886719 232.519531 301.707031 235.03125 300.71875 C 236.257812 300.152344 237.449219 299.601562 238.59375 299.070312 C 239.167969 298.800781 239.730469 298.539062 240.28125 298.28125 C 240.832031 298.019531 241.351562 297.726562 241.871094 297.457031 C 243.933594 296.359375 245.847656 295.398438 247.460938 294.378906 C 248.277344 293.890625 249.042969 293.429688 249.757812 293 C 250.113281 292.785156 250.457031 292.578125 250.785156 292.378906 C 251.105469 292.160156 251.410156 291.957031 251.703125 291.757812 C 251.703125 291.757812 252.792969 291.027344 253.886719 290.296875 C 254.433594 289.929688 254.980469 289.566406 255.386719 289.289062 C 255.800781 289.023438 256.058594 288.816406 256.058594 288.816406 C 256.058594 288.816406 257.230469 287.96875 258.992188 286.695312 C 259.433594 286.378906 259.910156 286.035156 260.417969 285.671875 C 260.902344 285.28125 261.417969 284.875 261.949219 284.453125 C 263.007812 283.601562 264.152344 282.714844 265.265625 281.789062 C 267.433594 279.871094 269.644531 278 271.171875 276.449219 C 271.953125 275.695312 272.601562 275.0625 273.058594 274.625 C 273.515625 274.1875 273.769531 273.925781 273.769531 273.925781 C 273.769531 273.925781 274.769531 272.882812 276.273438 271.3125 C 277.820312 269.785156 279.65625 267.542969 281.574219 265.371094 C 283.355469 263.082031 285.21875 260.859375 286.433594 259.054688 C 287.699219 257.285156 288.542969 256.105469 288.542969 256.105469 L 291.460938 251.722656 C 297.527344 242.257812 302.394531 231.953125 305.574219 221.101562 C 308.878906 210.277344 310.402344 198.929688 310.503906 187.585938 L 310.507812 187.578125 L 310.507812 187.414062 " fill-opacity="1" fill-rule="nonzero"/></g><g clip-path="url(#b227c19cf8)"><path fill="#060b37" d="M 260.601562 178.164062 C 260.601562 197.691406 252.996094 216.046875 239.191406 229.855469 C 225.382812 243.664062 207.023438 251.269531 187.496094 251.269531 C 167.96875 251.269531 149.613281 243.664062 135.804688 229.855469 C 121.996094 216.046875 114.390625 197.691406 114.390625 178.164062 C 114.390625 172.253906 115.09375 166.457031 116.445312 160.851562 C 113.308594 169.246094 111.667969 178.214844 111.667969 187.441406 C 111.667969 207.695312 119.554688 226.738281 133.878906 241.0625 C 148.199219 255.382812 167.242188 263.273438 187.496094 263.273438 C 207.753906 263.273438 226.792969 255.382812 241.117188 241.0625 C 255.4375 226.738281 263.324219 207.695312 263.324219 187.441406 C 263.324219 178.214844 261.683594 169.246094 258.546875 160.851562 C 259.902344 166.457031 260.601562 172.253906 260.601562 178.164062 " fill-opacity="1" fill-rule="nonzero"/></g><g clip-path="url(#0fabac10d8)"><path fill="#8c6c19" d="M 117.957031 189.011719 C 118.289062 150.886719 149.296875 120.082031 187.496094 120.082031 C 225.699219 120.082031 256.707031 150.886719 257.039062 189.011719 C 257.292969 186.589844 257.421875 184.132812 257.421875 181.648438 C 257.421875 143.03125 226.117188 111.722656 187.496094 111.722656 C 148.878906 111.722656 117.574219 143.03125 117.574219 181.648438 C 117.574219 184.132812 117.703125 186.589844 117.957031 189.011719 " fill-opacity="1" fill-rule="nonzero"/></g><path fill="#8c6c19" d="M 202.550781 171.179688 L 202.550781 165.96875 L 172.445312 165.96875 L 172.445312 171.179688 L 202.550781 171.179688 " fill-opacity="1" fill-rule="nonzero"/><path fill="#8c6c19" d="M 206.667969 163.863281 L 206.667969 158.652344 L 168.328125 158.652344 L 168.328125 163.863281 L 206.667969 163.863281 " fill-opacity="1" fill-rule="nonzero"/><path fill="#8c6c19" d="M 228.550781 172.734375 L 228.550781 167.515625 C 228.550781 164.640625 230.890625 162.296875 233.769531 162.296875 C 236.648438 162.296875 238.988281 164.640625 238.988281 167.515625 C 238.988281 170.386719 236.65625 172.722656 233.789062 172.734375 Z M 235.535156 202.949219 L 228.054688 202.949219 L 228.054688 176.347656 Z M 227.042969 202.949219 L 219.554688 202.949219 L 227.042969 176.347656 Z M 155.4375 202.949219 L 147.953125 202.949219 L 147.953125 176.347656 Z M 146.941406 202.949219 L 139.457031 202.949219 L 146.941406 176.347656 Z M 141.203125 172.734375 C 138.335938 172.722656 136.007812 170.386719 136.007812 167.515625 C 136.007812 164.640625 138.347656 162.296875 141.226562 162.296875 C 144.101562 162.296875 146.445312 164.640625 146.445312 167.515625 L 146.445312 172.734375 Z M 241.007812 167.515625 C 241.007812 163.523438 237.761719 160.273438 233.769531 160.273438 C 229.777344 160.273438 226.527344 163.523438 226.527344 167.515625 L 226.527344 172.734375 L 148.464844 172.734375 L 148.464844 167.515625 C 148.464844 163.523438 145.21875 160.273438 141.226562 160.273438 C 137.234375 160.273438 133.988281 163.523438 133.988281 167.515625 C 133.988281 171.507812 137.234375 174.757812 141.226562 174.757812 L 146.339844 174.757812 L 138.40625 202.949219 L 136.753906 202.949219 L 136.753906 203.453125 C 136.753906 207.195312 141.550781 210.238281 147.449219 210.238281 C 153.34375 210.238281 158.140625 207.195312 158.140625 203.453125 L 158.140625 202.949219 L 156.488281 202.949219 L 148.554688 174.757812 L 162.6875 174.757812 C 170.683594 175.710938 176.886719 182.515625 176.886719 190.769531 L 176.886719 222.863281 L 180.5 226.480469 L 180.5 184.214844 C 180.5 182.867188 181.59375 181.777344 182.941406 181.777344 C 184.289062 181.777344 185.378906 182.867188 185.378906 184.214844 L 185.378906 231.359375 L 187.496094 233.476562 L 189.613281 231.359375 L 189.613281 184.214844 C 189.613281 182.867188 190.707031 181.777344 192.054688 181.777344 C 193.398438 181.777344 194.492188 182.867188 194.492188 184.214844 L 194.492188 226.480469 L 198.109375 222.863281 L 198.109375 190.769531 C 198.109375 182.515625 204.308594 175.710938 212.304688 174.757812 L 226.441406 174.757812 L 218.507812 202.949219 L 216.855469 202.949219 L 216.855469 203.453125 C 216.855469 207.195312 221.652344 210.238281 227.546875 210.238281 C 233.441406 210.238281 238.238281 207.195312 238.238281 203.453125 L 238.238281 202.949219 L 236.589844 202.949219 L 228.652344 174.757812 L 233.769531 174.757812 C 237.761719 174.757812 241.007812 171.507812 241.007812 167.515625 " fill-opacity="1" fill-rule="nonzero"/><g clip-path="url(#0db8add687)"><g clip-path="url(#a16a5d936b)"><path fill="#2e2f38" d="M 275.324219 196.484375 L 284.953125 196.484375 L 284.953125 206.113281 L 275.324219 206.113281 Z M 275.324219 196.484375 " fill-opacity="1" fill-rule="nonzero"/></g></g><g clip-path="url(#4cf6fbbbcf)"><g clip-path="url(#c444144394)"><path fill="#2e2f38" d="M 90.046875 196.484375 L 99.675781 196.484375 L 99.675781 206.113281 L 90.046875 206.113281 Z M 90.046875 196.484375 " fill-opacity="1" fill-rule="nonzero"/></g></g><g fill="#060b37" fill-opacity="1"><g transform="translate(109.522817, 141.094242)"><g><path d="M 1.3125 -3.6875 C 1.789062 -4.394531 2.203125 -5.0625 2.546875 -5.6875 C 2.890625 -6.3125 3.164062 -6.867188 3.375 -7.359375 C 3.632812 -7.929688 3.847656 -8.460938 4.015625 -8.953125 L 5.296875 -7.734375 C 5.234375 -7.660156 5.148438 -7.550781 5.046875 -7.40625 C 4.941406 -7.269531 4.832031 -7.117188 4.71875 -6.953125 C 4.601562 -6.785156 4.476562 -6.601562 4.34375 -6.40625 C 4.207031 -6.21875 4.078125 -6.035156 3.953125 -5.859375 C 3.835938 -5.691406 3.734375 -5.539062 3.640625 -5.40625 C 3.546875 -5.28125 3.476562 -5.1875 3.4375 -5.125 L 0.859375 -1.265625 L 0.828125 -1.296875 C 0.722656 -1.410156 0.585938 -1.546875 0.421875 -1.703125 C 0.253906 -1.859375 0.046875 -2.039062 -0.203125 -2.25 C -0.453125 -2.46875 -0.757812 -2.707031 -1.125 -2.96875 C -1.5 -3.226562 -1.941406 -3.53125 -2.453125 -3.875 L -8.265625 -7.765625 C -8.773438 -8.109375 -9.21875 -8.398438 -9.59375 -8.640625 C -9.976562 -8.878906 -10.316406 -9.078125 -10.609375 -9.234375 C -10.910156 -9.398438 -11.164062 -9.53125 -11.375 -9.625 C -11.582031 -9.71875 -11.753906 -9.785156 -11.890625 -9.828125 L -11.9375 -9.84375 L -10.5 -11.984375 L -10.453125 -11.96875 C -10.367188 -11.851562 -10.242188 -11.71875 -10.078125 -11.5625 C -9.910156 -11.40625 -9.691406 -11.222656 -9.421875 -11.015625 C -9.160156 -10.804688 -8.847656 -10.566406 -8.484375 -10.296875 C -8.128906 -10.035156 -7.695312 -9.734375 -7.1875 -9.390625 Z M 1.3125 -3.6875 "/></g></g></g><g fill="#060b37" fill-opacity="1"><g transform="translate(117.009423, 130.064996)"><g><path d="M 8.4375 -8.796875 L 8.40625 -8.828125 C 8.394531 -8.867188 8.363281 -8.914062 8.3125 -8.96875 C 8.269531 -9.019531 8.226562 -9.0625 8.1875 -9.09375 C 8.019531 -9.257812 7.816406 -9.410156 7.578125 -9.546875 C 7.335938 -9.691406 7.015625 -9.84375 6.609375 -10 L 3.609375 -11.078125 C 3.316406 -10.796875 2.9375 -10.414062 2.46875 -9.9375 C 2.007812 -9.457031 1.515625 -8.9375 0.984375 -8.375 C 0.597656 -7.96875 0.222656 -7.570312 -0.140625 -7.1875 C -0.503906 -6.8125 -0.828125 -6.46875 -1.109375 -6.15625 L 0.078125 -3.296875 C 0.203125 -3.035156 0.332031 -2.75 0.46875 -2.4375 C 0.613281 -2.132812 0.800781 -1.867188 1.03125 -1.640625 C 1.09375 -1.585938 1.148438 -1.539062 1.203125 -1.5 C 1.253906 -1.46875 1.300781 -1.457031 1.34375 -1.46875 L 1.375 -1.4375 L -0.15625 0.15625 L -0.1875 0.125 C -0.195312 -0.0625 -0.257812 -0.34375 -0.375 -0.71875 C -0.488281 -1.101562 -0.65625 -1.5625 -0.875 -2.09375 L -6.46875 -15.984375 L -5.875 -16.609375 L 7.640625 -11.71875 C 7.953125 -11.613281 8.265625 -11.507812 8.578125 -11.40625 C 8.890625 -11.3125 9.171875 -11.234375 9.421875 -11.171875 C 9.671875 -11.109375 9.890625 -11.054688 10.078125 -11.015625 C 10.265625 -10.984375 10.382812 -10.96875 10.4375 -10.96875 L 10.46875 -10.9375 Z M -0.703125 -7.9375 C -0.421875 -8.238281 -0.128906 -8.546875 0.171875 -8.859375 C 0.472656 -9.171875 0.765625 -9.476562 1.046875 -9.78125 C 1.328125 -10.09375 1.597656 -10.390625 1.859375 -10.671875 C 2.128906 -10.953125 2.375 -11.210938 2.59375 -11.453125 L -4.4375 -13.984375 L -1.5 -7.09375 Z M -0.703125 -7.9375 "/></g></g></g><g fill="#060b37" fill-opacity="1"><g transform="translate(129.228513, 117.161118)"><g><path d="M 2.515625 -17.515625 L 11.765625 -11.0625 L 9.734375 -21.953125 C 9.648438 -22.378906 9.5625 -22.738281 9.46875 -23.03125 C 9.375 -23.320312 9.273438 -23.550781 9.171875 -23.71875 C 9.128906 -23.78125 9.085938 -23.835938 9.046875 -23.890625 C 9.003906 -23.953125 8.960938 -23.992188 8.921875 -24.015625 L 8.90625 -24.046875 L 10.71875 -25.203125 L 10.734375 -25.171875 C 10.691406 -24.953125 10.691406 -24.65625 10.734375 -24.28125 C 10.785156 -23.90625 10.847656 -23.4375 10.921875 -22.875 L 13.5 -8.296875 L 12.8125 -7.84375 L 3.8125 -14.109375 L 6.078125 -3.515625 L 5.421875 -3.09375 L -6.125 -11.3125 C -6.382812 -11.488281 -6.648438 -11.660156 -6.921875 -11.828125 C -7.191406 -11.992188 -7.4375 -12.140625 -7.65625 -12.265625 C -7.882812 -12.398438 -8.078125 -12.503906 -8.234375 -12.578125 C -8.398438 -12.660156 -8.519531 -12.71875 -8.59375 -12.75 L -8.609375 -12.78125 L -6.109375 -14.375 L -6.09375 -14.34375 C -6.0625 -14.28125 -6.03125 -14.226562 -6 -14.1875 C -5.976562 -14.144531 -5.953125 -14.101562 -5.921875 -14.0625 C -5.796875 -13.851562 -5.632812 -13.644531 -5.4375 -13.4375 C -5.238281 -13.238281 -4.972656 -13.019531 -4.640625 -12.78125 L 4.28125 -6.40625 L 1.96875 -17.109375 Z M 2.515625 -17.515625 "/></g></g></g><g fill="#060b37" fill-opacity="1"><g transform="translate(151.073629, 104.352482)"><g/></g></g><g fill="#060b37" fill-opacity="1"><g transform="translate(160.281173, 100.618305)"><g><path d="M 10.75 -15.828125 L 10.671875 -15.765625 C 10.003906 -16.140625 9.253906 -16.390625 8.421875 -16.515625 C 7.585938 -16.640625 6.710938 -16.597656 5.796875 -16.390625 C 4.921875 -16.191406 4.144531 -15.867188 3.46875 -15.421875 C 2.800781 -14.984375 2.265625 -14.441406 1.859375 -13.796875 C 1.453125 -13.148438 1.1875 -12.410156 1.0625 -11.578125 C 0.945312 -10.753906 1 -9.863281 1.21875 -8.90625 C 1.46875 -7.820312 1.835938 -6.847656 2.328125 -5.984375 C 2.816406 -5.128906 3.410156 -4.425781 4.109375 -3.875 C 4.816406 -3.320312 5.628906 -2.945312 6.546875 -2.75 C 7.460938 -2.5625 8.472656 -2.59375 9.578125 -2.84375 C 9.972656 -2.9375 10.359375 -3.066406 10.734375 -3.234375 C 11.117188 -3.410156 11.472656 -3.617188 11.796875 -3.859375 C 12.128906 -4.109375 12.429688 -4.382812 12.703125 -4.6875 C 12.984375 -5 13.21875 -5.335938 13.40625 -5.703125 L 13.53125 -5.65625 L 13.1875 -3.328125 C 12.707031 -3.003906 12.164062 -2.71875 11.5625 -2.46875 C 10.957031 -2.21875 10.332031 -2.019531 9.6875 -1.875 C 8.394531 -1.582031 7.171875 -1.5 6.015625 -1.625 C 4.859375 -1.75 3.8125 -2.0625 2.875 -2.5625 C 1.945312 -3.070312 1.160156 -3.757812 0.515625 -4.625 C -0.128906 -5.488281 -0.582031 -6.507812 -0.84375 -7.6875 C -1 -8.34375 -1.0625 -9.007812 -1.03125 -9.6875 C -1.007812 -10.375 -0.898438 -11.046875 -0.703125 -11.703125 C -0.503906 -12.359375 -0.222656 -12.984375 0.140625 -13.578125 C 0.515625 -14.179688 0.96875 -14.726562 1.5 -15.21875 C 2.039062 -15.71875 2.660156 -16.148438 3.359375 -16.515625 C 4.054688 -16.878906 4.835938 -17.160156 5.703125 -17.359375 C 7.054688 -17.671875 8.351562 -17.753906 9.59375 -17.609375 Z M 10.75 -15.828125 "/></g></g></g><g fill="#060b37" fill-opacity="1"><g transform="translate(177.71794, 96.806696)"><g><path d="M 8.359375 -15.765625 C 9.554688 -15.773438 10.660156 -15.59375 11.671875 -15.21875 C 12.691406 -14.84375 13.578125 -14.304688 14.328125 -13.609375 C 15.078125 -12.921875 15.664062 -12.082031 16.09375 -11.09375 C 16.519531 -10.113281 16.742188 -9.023438 16.765625 -7.828125 C 16.773438 -7.148438 16.703125 -6.476562 16.546875 -5.8125 C 16.390625 -5.15625 16.164062 -4.53125 15.875 -3.9375 C 15.582031 -3.351562 15.21875 -2.804688 14.78125 -2.296875 C 14.34375 -1.785156 13.835938 -1.347656 13.265625 -0.984375 C 12.703125 -0.617188 12.078125 -0.328125 11.390625 -0.109375 C 10.703125 0.0976562 9.960938 0.207031 9.171875 0.21875 C 7.972656 0.226562 6.863281 0.0507812 5.84375 -0.3125 C 4.832031 -0.6875 3.953125 -1.21875 3.203125 -1.90625 C 2.460938 -2.601562 1.875 -3.441406 1.4375 -4.421875 C 1.007812 -5.398438 0.789062 -6.492188 0.78125 -7.703125 C 0.769531 -8.378906 0.835938 -9.046875 0.984375 -9.703125 C 1.140625 -10.359375 1.363281 -10.988281 1.65625 -11.59375 C 1.957031 -12.195312 2.328125 -12.75 2.765625 -13.25 C 3.203125 -13.75 3.703125 -14.179688 4.265625 -14.546875 C 4.828125 -14.921875 5.453125 -15.210938 6.140625 -15.421875 C 6.828125 -15.640625 7.566406 -15.753906 8.359375 -15.765625 Z M 9.15625 -0.75 C 9.945312 -0.757812 10.671875 -0.910156 11.328125 -1.203125 C 11.992188 -1.503906 12.554688 -1.925781 13.015625 -2.46875 C 13.484375 -3.019531 13.847656 -3.691406 14.109375 -4.484375 C 14.367188 -5.273438 14.488281 -6.164062 14.46875 -7.15625 C 14.457031 -8.257812 14.316406 -9.28125 14.046875 -10.21875 C 13.785156 -11.15625 13.398438 -11.96875 12.890625 -12.65625 C 12.378906 -13.34375 11.75 -13.875 11 -14.25 C 10.25 -14.632812 9.375 -14.820312 8.375 -14.8125 C 7.582031 -14.800781 6.859375 -14.644531 6.203125 -14.34375 C 5.546875 -14.050781 4.984375 -13.632812 4.515625 -13.09375 C 4.046875 -12.550781 3.679688 -11.890625 3.421875 -11.109375 C 3.171875 -10.328125 3.050781 -9.441406 3.0625 -8.453125 C 3.082031 -7.347656 3.222656 -6.320312 3.484375 -5.375 C 3.742188 -4.425781 4.128906 -3.609375 4.640625 -2.921875 C 5.148438 -2.234375 5.78125 -1.695312 6.53125 -1.3125 C 7.289062 -0.925781 8.164062 -0.738281 9.15625 -0.75 Z M 9.15625 -0.75 "/></g></g></g><g fill="#060b37" fill-opacity="1"><g transform="translate(198.347005, 96.943595)"><g><path d="M 5.25 -14.640625 L 13.65625 -0.84375 L 15.203125 -8.25 C 15.328125 -8.851562 15.425781 -9.378906 15.5 -9.828125 C 15.582031 -10.273438 15.644531 -10.660156 15.6875 -10.984375 C 15.726562 -11.316406 15.75 -11.597656 15.75 -11.828125 C 15.757812 -12.054688 15.765625 -12.242188 15.765625 -12.390625 L 15.78125 -12.4375 L 17.640625 -12.046875 L 17.625 -12 C 17.550781 -11.875 17.472656 -11.703125 17.390625 -11.484375 C 17.304688 -11.273438 17.21875 -11.007812 17.125 -10.6875 C 17.03125 -10.375 16.925781 -9.992188 16.8125 -9.546875 C 16.707031 -9.109375 16.59375 -8.585938 16.46875 -7.984375 L 14.140625 3.1875 L 13.78125 3.109375 L 5.359375 -10.671875 L 3.859375 -3.484375 C 3.734375 -2.890625 3.628906 -2.363281 3.546875 -1.90625 C 3.472656 -1.457031 3.414062 -1.070312 3.375 -0.75 C 3.332031 -0.425781 3.304688 -0.15625 3.296875 0.0625 C 3.285156 0.289062 3.285156 0.484375 3.296875 0.640625 L 3.28125 0.6875 L 1.421875 0.296875 L 1.4375 0.25 C 1.5 0.113281 1.570312 -0.0546875 1.65625 -0.265625 C 1.75 -0.484375 1.84375 -0.75 1.9375 -1.0625 C 2.03125 -1.375 2.128906 -1.75 2.234375 -2.1875 C 2.347656 -2.632812 2.46875 -3.15625 2.59375 -3.75 L 4.015625 -10.59375 C 4.140625 -11.195312 4.238281 -11.722656 4.3125 -12.171875 C 4.394531 -12.617188 4.457031 -13.003906 4.5 -13.328125 C 4.539062 -13.660156 4.5625 -13.941406 4.5625 -14.171875 C 4.570312 -14.398438 4.570312 -14.585938 4.5625 -14.734375 L 4.578125 -14.78125 Z M 5.25 -14.640625 "/></g></g></g><g fill="#060b37" fill-opacity="1"><g transform="translate(217.077189, 101.174921)"><g><path d="M 8.1875 -13.234375 L 13.546875 2.03125 L 16.609375 -4.890625 C 16.859375 -5.453125 17.066406 -5.941406 17.234375 -6.359375 C 17.398438 -6.773438 17.535156 -7.140625 17.640625 -7.453125 C 17.753906 -7.773438 17.835938 -8.046875 17.890625 -8.265625 C 17.941406 -8.484375 17.976562 -8.671875 18 -8.828125 L 18.015625 -8.875 L 19.765625 -8.09375 L 19.75 -8.046875 C 19.644531 -7.929688 19.53125 -7.78125 19.40625 -7.59375 C 19.289062 -7.40625 19.148438 -7.160156 18.984375 -6.859375 C 18.828125 -6.566406 18.648438 -6.21875 18.453125 -5.8125 C 18.253906 -5.40625 18.03125 -4.921875 17.78125 -4.359375 L 13.15625 6.078125 L 12.828125 5.921875 L 7.46875 -9.328125 L 4.5 -2.609375 C 4.25 -2.046875 4.039062 -1.550781 3.875 -1.125 C 3.707031 -0.695312 3.566406 -0.328125 3.453125 -0.015625 C 3.347656 0.285156 3.265625 0.539062 3.203125 0.75 C 3.148438 0.96875 3.113281 1.15625 3.09375 1.3125 L 3.078125 1.359375 L 1.328125 0.59375 L 1.34375 0.546875 C 1.445312 0.421875 1.5625 0.265625 1.6875 0.078125 C 1.8125 -0.0976562 1.953125 -0.328125 2.109375 -0.609375 C 2.273438 -0.898438 2.453125 -1.25 2.640625 -1.65625 C 2.835938 -2.070312 3.0625 -2.5625 3.3125 -3.125 L 6.140625 -9.515625 C 6.390625 -10.078125 6.597656 -10.566406 6.765625 -10.984375 C 6.941406 -11.398438 7.082031 -11.765625 7.1875 -12.078125 C 7.300781 -12.398438 7.382812 -12.671875 7.4375 -12.890625 C 7.488281 -13.117188 7.523438 -13.304688 7.546875 -13.453125 L 7.5625 -13.5 Z M 8.1875 -13.234375 "/></g></g></g><g fill="#060b37" fill-opacity="1"><g transform="translate(234.55811, 109.501967)"><g><path d="M 9.96875 -11.859375 C 10.707031 -11.347656 11.441406 -10.84375 12.171875 -10.34375 C 12.898438 -9.851562 13.570312 -9.398438 14.1875 -8.984375 C 14.800781 -8.578125 15.332031 -8.234375 15.78125 -7.953125 C 16.226562 -7.679688 16.539062 -7.507812 16.71875 -7.4375 L 15.46875 -6.546875 C 15.320312 -6.742188 15.125 -6.945312 14.875 -7.15625 C 14.675781 -7.351562 14.425781 -7.578125 14.125 -7.828125 C 13.832031 -8.078125 13.472656 -8.347656 13.046875 -8.640625 C 12.910156 -8.734375 12.738281 -8.84375 12.53125 -8.96875 C 12.332031 -9.09375 12.140625 -9.210938 11.953125 -9.328125 C 11.722656 -9.460938 11.5 -9.601562 11.28125 -9.75 L 7.96875 -4.90625 C 8.570312 -4.488281 9.128906 -4.125 9.640625 -3.8125 C 10.148438 -3.507812 10.585938 -3.265625 10.953125 -3.078125 C 11.378906 -2.828125 11.765625 -2.617188 12.109375 -2.453125 L 10.953125 -1.359375 C 10.585938 -1.691406 10.203125 -2.023438 9.796875 -2.359375 C 9.460938 -2.648438 9.09375 -2.960938 8.6875 -3.296875 C 8.28125 -3.628906 7.878906 -3.929688 7.484375 -4.203125 L 3.671875 1.359375 C 4.367188 1.847656 5.03125 2.257812 5.65625 2.59375 C 6.28125 2.9375 6.84375 3.222656 7.34375 3.453125 C 7.90625 3.703125 8.429688 3.921875 8.921875 4.109375 L 7.6875 5.375 C 7.613281 5.3125 7.507812 5.222656 7.375 5.109375 C 7.238281 5.003906 7.082031 4.894531 6.90625 4.78125 C 6.738281 4.664062 6.554688 4.535156 6.359375 4.390625 C 6.171875 4.253906 5.988281 4.128906 5.8125 4.015625 C 5.644531 3.898438 5.5 3.789062 5.375 3.6875 C 5.25 3.59375 5.15625 3.523438 5.09375 3.484375 L 1.265625 0.859375 L 1.296875 0.828125 C 1.410156 0.734375 1.546875 0.601562 1.703125 0.4375 C 1.867188 0.269531 2.054688 0.0625 2.265625 -0.1875 C 2.472656 -0.4375 2.707031 -0.742188 2.96875 -1.109375 C 3.238281 -1.472656 3.546875 -1.910156 3.890625 -2.421875 L 7.828125 -8.1875 C 8.179688 -8.695312 8.484375 -9.140625 8.734375 -9.515625 C 8.984375 -9.890625 9.1875 -10.222656 9.34375 -10.515625 C 9.507812 -10.816406 9.632812 -11.070312 9.71875 -11.28125 C 9.8125 -11.488281 9.882812 -11.664062 9.9375 -11.8125 Z M 9.96875 -11.859375 "/></g></g></g><g fill="#060b37" fill-opacity="1"><g transform="translate(246.033811, 117.475416)"><g><path d="M 19.125 0.5 L 19.03125 0.453125 C 18.988281 -0.296875 18.796875 -1.054688 18.453125 -1.828125 C 18.109375 -2.597656 17.601562 -3.3125 16.9375 -3.96875 C 16.289062 -4.59375 15.597656 -5.066406 14.859375 -5.390625 C 14.128906 -5.722656 13.382812 -5.882812 12.625 -5.875 C 11.863281 -5.875 11.097656 -5.703125 10.328125 -5.359375 C 9.566406 -5.015625 8.84375 -4.488281 8.15625 -3.78125 C 7.382812 -2.988281 6.765625 -2.148438 6.296875 -1.265625 C 5.835938 -0.390625 5.566406 0.488281 5.484375 1.375 C 5.398438 2.257812 5.519531 3.140625 5.84375 4.015625 C 6.175781 4.898438 6.75 5.738281 7.5625 6.53125 C 7.851562 6.8125 8.171875 7.066406 8.515625 7.296875 C 8.867188 7.523438 9.238281 7.707031 9.625 7.84375 C 10.007812 7.988281 10.40625 8.09375 10.8125 8.15625 C 11.226562 8.226562 11.640625 8.242188 12.046875 8.203125 L 12.0625 8.34375 L 9.921875 9.296875 C 9.390625 9.078125 8.851562 8.773438 8.3125 8.390625 C 7.769531 8.015625 7.265625 7.597656 6.796875 7.140625 C 5.859375 6.210938 5.128906 5.226562 4.609375 4.1875 C 4.085938 3.144531 3.789062 2.097656 3.71875 1.046875 C 3.65625 -0.00390625 3.804688 -1.035156 4.171875 -2.046875 C 4.546875 -3.066406 5.160156 -4.007812 6.015625 -4.875 C 6.484375 -5.351562 7.007812 -5.765625 7.59375 -6.109375 C 8.175781 -6.453125 8.800781 -6.71875 9.46875 -6.90625 C 10.132812 -7.09375 10.816406 -7.191406 11.515625 -7.203125 C 12.210938 -7.210938 12.914062 -7.125 13.625 -6.9375 C 14.332031 -6.757812 15.03125 -6.472656 15.71875 -6.078125 C 16.40625 -5.691406 17.0625 -5.191406 17.6875 -4.578125 C 18.675781 -3.597656 19.445312 -2.546875 20 -1.421875 Z M 19.125 0.5 "/></g></g></g><g fill="#060b37" fill-opacity="1"><g transform="translate(258.596736, 130.336764)"><g><path d="M 15.0625 -3.640625 C 14.570312 -4.335938 14.101562 -4.941406 13.65625 -5.453125 C 13.21875 -5.972656 12.820312 -6.414062 12.46875 -6.78125 C 12.050781 -7.1875 11.660156 -7.539062 11.296875 -7.84375 L 12.890625 -8.578125 C 12.941406 -8.503906 13.015625 -8.394531 13.109375 -8.25 C 13.203125 -8.101562 13.304688 -7.9375 13.421875 -7.75 C 13.535156 -7.570312 13.65625 -7.390625 13.78125 -7.203125 C 13.90625 -7.015625 14.023438 -6.832031 14.140625 -6.65625 C 14.265625 -6.488281 14.367188 -6.335938 14.453125 -6.203125 C 14.546875 -6.066406 14.613281 -5.96875 14.65625 -5.90625 L 18.15625 -0.859375 C 18.195312 -0.796875 18.265625 -0.703125 18.359375 -0.578125 C 18.453125 -0.453125 18.554688 -0.304688 18.671875 -0.140625 C 18.796875 0.0234375 18.925781 0.203125 19.0625 0.390625 C 19.195312 0.585938 19.328125 0.769531 19.453125 0.9375 C 19.585938 1.113281 19.703125 1.269531 19.796875 1.40625 C 19.898438 1.539062 19.976562 1.644531 20.03125 1.71875 L 18.78125 2.953125 C 18.625 2.515625 18.429688 2.023438 18.203125 1.484375 C 17.992188 1.023438 17.722656 0.5 17.390625 -0.09375 C 17.054688 -0.695312 16.648438 -1.34375 16.171875 -2.03125 L 7.75 3.8125 C 7.25 4.15625 6.816406 4.460938 6.453125 4.734375 C 6.085938 5.003906 5.773438 5.242188 5.515625 5.453125 C 5.265625 5.660156 5.054688 5.84375 4.890625 6 C 4.734375 6.15625 4.609375 6.296875 4.515625 6.421875 L 4.484375 6.453125 L 3.015625 4.34375 L 3.046875 4.3125 C 3.191406 4.257812 3.363281 4.1875 3.5625 4.09375 C 3.769531 4 4.015625 3.867188 4.296875 3.703125 C 4.585938 3.546875 4.925781 3.34375 5.3125 3.09375 C 5.695312 2.84375 6.140625 2.546875 6.640625 2.203125 Z M 15.0625 -3.640625 "/></g></g></g><g fill="#060b37" fill-opacity="1"><g transform="translate(121.512534, 274.644445)"><g><path d="M 6.328125 -4.578125 C 6.910156 -4.148438 7.488281 -3.859375 8.0625 -3.703125 C 8.632812 -3.554688 9.179688 -3.546875 9.703125 -3.671875 C 10.222656 -3.804688 10.710938 -4.085938 11.171875 -4.515625 C 11.628906 -4.953125 12.035156 -5.546875 12.390625 -6.296875 C 12.628906 -6.828125 12.796875 -7.332031 12.890625 -7.8125 C 12.992188 -8.289062 13.003906 -8.726562 12.921875 -9.125 C 12.847656 -9.53125 12.679688 -9.894531 12.421875 -10.21875 C 12.171875 -10.539062 11.828125 -10.804688 11.390625 -11.015625 C 11.109375 -11.140625 10.859375 -11.238281 10.640625 -11.3125 C 10.421875 -11.394531 10.234375 -11.457031 10.078125 -11.5 C 9.890625 -11.539062 9.726562 -11.566406 9.59375 -11.578125 Z M 7.90625 -13.3125 C 8.03125 -13.238281 8.160156 -13.160156 8.296875 -13.078125 C 8.421875 -13.015625 8.554688 -12.941406 8.703125 -12.859375 C 8.859375 -12.785156 9.015625 -12.710938 9.171875 -12.640625 C 9.429688 -12.515625 9.789062 -12.382812 10.25 -12.25 C 10.707031 -12.113281 11.269531 -11.890625 11.9375 -11.578125 C 12.5625 -11.285156 13.097656 -10.921875 13.546875 -10.484375 C 13.992188 -10.054688 14.328125 -9.578125 14.546875 -9.046875 C 14.765625 -8.515625 14.863281 -7.945312 14.84375 -7.34375 C 14.832031 -6.738281 14.675781 -6.117188 14.375 -5.484375 C 13.96875 -4.609375 13.445312 -3.9375 12.8125 -3.46875 C 12.175781 -3.007812 11.476562 -2.71875 10.71875 -2.59375 C 9.957031 -2.46875 9.171875 -2.507812 8.359375 -2.71875 C 7.546875 -2.9375 6.75 -3.300781 5.96875 -3.8125 L 5.21875 -2.203125 C 4.957031 -1.640625 4.738281 -1.144531 4.5625 -0.71875 C 4.394531 -0.300781 4.25 0.0546875 4.125 0.359375 C 4.007812 0.671875 3.921875 0.9375 3.859375 1.15625 C 3.804688 1.375 3.765625 1.550781 3.734375 1.6875 L 3.71875 1.734375 L 1.390625 0.640625 L 1.40625 0.59375 C 1.5 0.488281 1.613281 0.34375 1.75 0.15625 C 1.882812 -0.0195312 2.035156 -0.25 2.203125 -0.53125 C 2.367188 -0.820312 2.550781 -1.171875 2.75 -1.578125 C 2.957031 -1.984375 3.191406 -2.46875 3.453125 -3.03125 L 6.40625 -9.359375 C 6.664062 -9.910156 6.882812 -10.394531 7.0625 -10.8125 C 7.25 -11.226562 7.398438 -11.59375 7.515625 -11.90625 C 7.628906 -12.21875 7.710938 -12.484375 7.765625 -12.703125 C 7.816406 -12.929688 7.859375 -13.125 7.890625 -13.28125 Z M 7.90625 -13.3125 "/></g></g></g><g fill="#060b37" fill-opacity="1"><g transform="translate(136.624178, 281.458606)"><g><path d="M 11.609375 3.71875 L 11.625 3.671875 C 11.65625 3.640625 11.679688 3.59375 11.703125 3.53125 C 11.734375 3.46875 11.757812 3.410156 11.78125 3.359375 C 11.84375 3.140625 11.882812 2.894531 11.90625 2.625 C 11.925781 2.351562 11.921875 2 11.890625 1.5625 L 11.546875 -1.625 C 11.160156 -1.757812 10.648438 -1.925781 10.015625 -2.125 C 9.378906 -2.332031 8.691406 -2.554688 7.953125 -2.796875 C 7.421875 -2.960938 6.90625 -3.125 6.40625 -3.28125 C 5.90625 -3.445312 5.453125 -3.585938 5.046875 -3.703125 L 3 -1.359375 C 2.820312 -1.148438 2.625 -0.910156 2.40625 -0.640625 C 2.1875 -0.378906 2.03125 -0.0976562 1.9375 0.203125 C 1.90625 0.285156 1.890625 0.359375 1.890625 0.421875 C 1.890625 0.484375 1.894531 0.53125 1.90625 0.5625 L 1.890625 0.609375 L -0.203125 -0.0625 L -0.1875 -0.109375 C -0.0195312 -0.191406 0.203125 -0.367188 0.484375 -0.640625 C 0.773438 -0.921875 1.113281 -1.273438 1.5 -1.703125 L 11.515625 -12.828125 L 12.34375 -12.5625 L 13.890625 1.71875 C 13.929688 2.050781 13.972656 2.378906 14.015625 2.703125 C 14.066406 3.023438 14.117188 3.3125 14.171875 3.5625 C 14.222656 3.820312 14.269531 4.039062 14.3125 4.21875 C 14.363281 4.394531 14.40625 4.507812 14.4375 4.5625 L 14.421875 4.609375 Z M 6.8125 -4.125 C 7.207031 -4 7.613281 -3.867188 8.03125 -3.734375 C 8.445312 -3.609375 8.851562 -3.484375 9.25 -3.359375 C 9.65625 -3.242188 10.039062 -3.125 10.40625 -3 C 10.78125 -2.882812 11.117188 -2.785156 11.421875 -2.703125 L 10.625 -10.125 L 5.71875 -4.46875 Z M 6.8125 -4.125 "/></g></g></g><g fill="#060b37" fill-opacity="1"><g transform="translate(156.075588, 287.268152)"><g><path d="M 1.53125 0.21875 C 1.582031 0.0703125 1.644531 -0.101562 1.71875 -0.3125 C 1.800781 -0.519531 1.882812 -0.78125 1.96875 -1.09375 C 2.0625 -1.414062 2.148438 -1.800781 2.234375 -2.25 C 2.328125 -2.695312 2.425781 -3.222656 2.53125 -3.828125 L 3.71875 -10.703125 C 3.820312 -11.316406 3.90625 -11.84375 3.96875 -12.28125 C 4.039062 -12.726562 4.085938 -13.117188 4.109375 -13.453125 C 4.140625 -13.785156 4.15625 -14.066406 4.15625 -14.296875 C 4.15625 -14.535156 4.148438 -14.726562 4.140625 -14.875 L 4.140625 -14.90625 L 6.671875 -14.46875 L 6.671875 -14.4375 C 6.609375 -14.300781 6.535156 -14.125 6.453125 -13.90625 C 6.378906 -13.6875 6.300781 -13.414062 6.21875 -13.09375 C 6.132812 -12.769531 6.039062 -12.382812 5.9375 -11.9375 C 5.84375 -11.5 5.742188 -10.972656 5.640625 -10.359375 L 5.234375 -8.015625 L 12.3125 -12 C 13.101562 -12.4375 13.53125 -12.859375 13.59375 -13.265625 L 16.5625 -12.75 L 16.5625 -12.71875 C 16.125 -12.695312 15.664062 -12.578125 15.1875 -12.359375 C 14.71875 -12.148438 14.207031 -11.890625 13.65625 -11.578125 L 7.40625 -7.953125 L 12.71875 0.40625 C 12.957031 0.71875 13.15625 0.988281 13.3125 1.21875 C 13.476562 1.445312 13.625 1.632812 13.75 1.78125 C 13.875 1.925781 13.988281 2.050781 14.09375 2.15625 C 14.207031 2.257812 14.328125 2.359375 14.453125 2.453125 L 14.4375 2.5 L 11.328125 1.96875 C 11.316406 1.894531 11.285156 1.800781 11.234375 1.6875 C 11.179688 1.582031 11.117188 1.46875 11.046875 1.34375 C 10.984375 1.226562 10.910156 1.101562 10.828125 0.96875 C 10.742188 0.84375 10.660156 0.71875 10.578125 0.59375 L 5.203125 -7.828125 L 4.453125 -3.484375 C 4.347656 -2.878906 4.265625 -2.351562 4.203125 -1.90625 C 4.148438 -1.457031 4.109375 -1.066406 4.078125 -0.734375 C 4.046875 -0.410156 4.03125 -0.140625 4.03125 0.078125 C 4.03125 0.304688 4.039062 0.5 4.0625 0.65625 L 4.046875 0.703125 L 1.515625 0.265625 Z M 1.53125 0.21875 "/></g></g></g><g fill="#060b37" fill-opacity="1"><g transform="translate(175.213132, 290.089321)"><g><path d="M 1.640625 0.0625 C 1.691406 -0.0820312 1.742188 -0.265625 1.796875 -0.484375 C 1.847656 -0.703125 1.894531 -0.972656 1.9375 -1.296875 C 1.988281 -1.628906 2.035156 -2.019531 2.078125 -2.46875 C 2.128906 -2.925781 2.175781 -3.457031 2.21875 -4.0625 L 2.6875 -11.03125 C 2.726562 -11.644531 2.753906 -12.175781 2.765625 -12.625 C 2.773438 -13.082031 2.78125 -13.476562 2.78125 -13.8125 C 2.78125 -14.144531 2.769531 -14.425781 2.75 -14.65625 C 2.726562 -14.882812 2.695312 -15.070312 2.65625 -15.21875 L 2.671875 -15.265625 L 5.21875 -15.09375 L 5.203125 -15.046875 C 5.160156 -14.898438 5.109375 -14.71875 5.046875 -14.5 C 4.992188 -14.28125 4.941406 -14.003906 4.890625 -13.671875 C 4.835938 -13.335938 4.789062 -12.941406 4.75 -12.484375 C 4.707031 -12.035156 4.664062 -11.503906 4.625 -10.890625 L 4.15625 -3.921875 C 4.113281 -3.316406 4.082031 -2.785156 4.0625 -2.328125 C 4.050781 -1.878906 4.046875 -1.488281 4.046875 -1.15625 C 4.054688 -0.832031 4.070312 -0.554688 4.09375 -0.328125 C 4.125 -0.0976562 4.15625 0.0859375 4.1875 0.234375 L 4.1875 0.28125 L 1.640625 0.109375 Z M 1.640625 0.0625 "/></g></g></g><g fill="#060b37" fill-opacity="1"><g transform="translate(186.06525, 290.681701)"><g><path d="M 7.65625 -13.140625 L 7.421875 -13.125 C 7.367188 -13.289062 7.273438 -13.476562 7.140625 -13.6875 C 7.015625 -13.894531 6.847656 -14.085938 6.640625 -14.265625 C 6.429688 -14.441406 6.175781 -14.585938 5.875 -14.703125 C 5.582031 -14.816406 5.238281 -14.867188 4.84375 -14.859375 C 4.488281 -14.847656 4.175781 -14.785156 3.90625 -14.671875 C 3.644531 -14.566406 3.425781 -14.414062 3.25 -14.21875 C 3.070312 -14.019531 2.9375 -13.785156 2.84375 -13.515625 C 2.757812 -13.242188 2.722656 -12.945312 2.734375 -12.625 C 2.742188 -12.101562 2.898438 -11.613281 3.203125 -11.15625 C 3.503906 -10.695312 3.878906 -10.242188 4.328125 -9.796875 C 4.773438 -9.347656 5.253906 -8.898438 5.765625 -8.453125 C 6.285156 -8.003906 6.769531 -7.535156 7.21875 -7.046875 C 7.664062 -6.566406 8.039062 -6.054688 8.34375 -5.515625 C 8.644531 -4.984375 8.804688 -4.410156 8.828125 -3.796875 C 8.835938 -3.328125 8.765625 -2.851562 8.609375 -2.375 C 8.460938 -1.90625 8.222656 -1.476562 7.890625 -1.09375 C 7.554688 -0.71875 7.128906 -0.410156 6.609375 -0.171875 C 6.085938 0.0664062 5.460938 0.195312 4.734375 0.21875 C 4.316406 0.226562 3.925781 0.203125 3.5625 0.140625 C 3.195312 0.078125 2.859375 -0.00390625 2.546875 -0.109375 C 2.234375 -0.210938 1.945312 -0.328125 1.6875 -0.453125 C 1.4375 -0.578125 1.234375 -0.695312 1.078125 -0.8125 L 1.265625 -3.171875 L 1.53125 -3.171875 C 1.625 -2.847656 1.757812 -2.535156 1.9375 -2.234375 C 2.125 -1.929688 2.347656 -1.664062 2.609375 -1.4375 C 2.878906 -1.207031 3.1875 -1.023438 3.53125 -0.890625 C 3.875 -0.765625 4.242188 -0.707031 4.640625 -0.71875 C 5.003906 -0.726562 5.332031 -0.789062 5.625 -0.90625 C 5.914062 -1.03125 6.160156 -1.191406 6.359375 -1.390625 C 6.566406 -1.585938 6.722656 -1.820312 6.828125 -2.09375 C 6.929688 -2.375 6.976562 -2.675781 6.96875 -3 C 6.957031 -3.445312 6.863281 -3.859375 6.6875 -4.234375 C 6.519531 -4.617188 6.296875 -4.976562 6.015625 -5.3125 C 5.742188 -5.644531 5.429688 -5.96875 5.078125 -6.28125 C 4.734375 -6.601562 4.378906 -6.921875 4.015625 -7.234375 C 3.648438 -7.554688 3.289062 -7.882812 2.9375 -8.21875 C 2.59375 -8.5625 2.28125 -8.925781 2 -9.3125 C 1.726562 -9.695312 1.503906 -10.109375 1.328125 -10.546875 C 1.160156 -10.992188 1.066406 -11.484375 1.046875 -12.015625 C 1.035156 -12.585938 1.132812 -13.101562 1.34375 -13.5625 C 1.550781 -14.019531 1.832031 -14.414062 2.1875 -14.75 C 2.539062 -15.082031 2.941406 -15.335938 3.390625 -15.515625 C 3.847656 -15.703125 4.320312 -15.800781 4.8125 -15.8125 C 5.164062 -15.8125 5.492188 -15.785156 5.796875 -15.734375 C 6.097656 -15.691406 6.367188 -15.632812 6.609375 -15.5625 C 6.859375 -15.488281 7.070312 -15.414062 7.25 -15.34375 C 7.425781 -15.269531 7.570312 -15.207031 7.6875 -15.15625 Z M 7.65625 -13.140625 "/></g></g></g><g fill="#060b37" fill-opacity="1"><g transform="translate(201.293049, 290.117888)"><g><path d="M 3.546875 -15.09375 C 2.691406 -14.96875 1.9375 -14.820312 1.28125 -14.65625 C 0.625 -14.488281 0.0507812 -14.332031 -0.4375 -14.1875 C -0.988281 -13.988281 -1.476562 -13.796875 -1.90625 -13.609375 L -1.84375 -15.375 C -1.757812 -15.382812 -1.628906 -15.394531 -1.453125 -15.40625 C -1.285156 -15.414062 -1.09375 -15.429688 -0.875 -15.453125 C -0.664062 -15.484375 -0.445312 -15.507812 -0.21875 -15.53125 C 0.0078125 -15.5625 0.222656 -15.59375 0.421875 -15.625 C 0.628906 -15.65625 0.8125 -15.675781 0.96875 -15.6875 C 1.132812 -15.707031 1.253906 -15.722656 1.328125 -15.734375 L 7.40625 -16.59375 C 7.476562 -16.601562 7.59375 -16.617188 7.75 -16.640625 C 7.914062 -16.671875 8.097656 -16.695312 8.296875 -16.71875 C 8.492188 -16.75 8.707031 -16.785156 8.9375 -16.828125 C 9.175781 -16.867188 9.398438 -16.90625 9.609375 -16.9375 C 9.816406 -16.96875 10.003906 -17 10.171875 -17.03125 C 10.335938 -17.070312 10.460938 -17.097656 10.546875 -17.109375 L 11.109375 -15.4375 C 10.628906 -15.5 10.101562 -15.546875 9.53125 -15.578125 C 9.019531 -15.585938 8.425781 -15.582031 7.75 -15.5625 C 7.070312 -15.539062 6.3125 -15.472656 5.46875 -15.359375 L 6.890625 -5.203125 C 6.972656 -4.597656 7.050781 -4.070312 7.125 -3.625 C 7.207031 -3.175781 7.285156 -2.789062 7.359375 -2.46875 C 7.429688 -2.144531 7.5 -1.875 7.5625 -1.65625 C 7.632812 -1.445312 7.707031 -1.273438 7.78125 -1.140625 L 7.78125 -1.09375 L 5.234375 -0.734375 L 5.234375 -0.78125 C 5.253906 -0.925781 5.265625 -1.109375 5.265625 -1.328125 C 5.273438 -1.554688 5.269531 -1.835938 5.25 -2.171875 C 5.238281 -2.503906 5.207031 -2.894531 5.15625 -3.34375 C 5.113281 -3.800781 5.050781 -4.332031 4.96875 -4.9375 Z M 3.546875 -15.09375 "/></g></g></g><g fill="#060b37" fill-opacity="1"><g transform="translate(219.563171, 287.255318)"><g><path d="M 11.734375 -3.296875 L 11.71875 -3.34375 C 11.726562 -3.375 11.726562 -3.421875 11.71875 -3.484375 C 11.707031 -3.554688 11.691406 -3.617188 11.671875 -3.671875 C 11.609375 -3.890625 11.507812 -4.117188 11.375 -4.359375 C 11.25 -4.597656 11.050781 -4.894531 10.78125 -5.25 L 8.75 -7.703125 C 8.34375 -7.609375 7.816406 -7.46875 7.171875 -7.28125 C 6.535156 -7.101562 5.847656 -6.910156 5.109375 -6.703125 C 4.566406 -6.554688 4.039062 -6.410156 3.53125 -6.265625 C 3.03125 -6.128906 2.578125 -5.992188 2.171875 -5.859375 L 1.75 -2.796875 C 1.71875 -2.515625 1.679688 -2.203125 1.640625 -1.859375 C 1.609375 -1.523438 1.632812 -1.203125 1.71875 -0.890625 C 1.738281 -0.804688 1.765625 -0.738281 1.796875 -0.6875 C 1.835938 -0.632812 1.867188 -0.597656 1.890625 -0.578125 L 1.90625 -0.53125 L -0.203125 0.0625 L -0.21875 0.015625 C -0.125 -0.148438 -0.03125 -0.425781 0.0625 -0.8125 C 0.15625 -1.207031 0.238281 -1.6875 0.3125 -2.25 L 2.546875 -17.0625 L 3.375 -17.296875 L 12.53125 -6.21875 C 12.75 -5.957031 12.96875 -5.707031 13.1875 -5.46875 C 13.40625 -5.226562 13.609375 -5.015625 13.796875 -4.828125 C 13.984375 -4.640625 14.144531 -4.484375 14.28125 -4.359375 C 14.414062 -4.242188 14.507812 -4.171875 14.5625 -4.140625 L 14.578125 -4.09375 Z M 3.421875 -7.1875 C 3.816406 -7.300781 4.222656 -7.421875 4.640625 -7.546875 C 5.066406 -7.671875 5.476562 -7.789062 5.875 -7.90625 C 6.28125 -8.03125 6.664062 -8.144531 7.03125 -8.25 C 7.40625 -8.351562 7.75 -8.453125 8.0625 -8.546875 L 3.296875 -14.296875 L 2.296875 -6.875 Z M 3.421875 -7.1875 "/></g></g></g><g fill="#060b37" fill-opacity="1"><g transform="translate(239.069363, 281.423041)"><g><path d="M -4.3125 -14.953125 L 10.59375 -8.6875 L 7.515625 -15.59375 C 7.265625 -16.15625 7.035156 -16.632812 6.828125 -17.03125 C 6.628906 -17.4375 6.453125 -17.785156 6.296875 -18.078125 C 6.140625 -18.378906 5.992188 -18.625 5.859375 -18.8125 C 5.734375 -19 5.625 -19.15625 5.53125 -19.28125 L 5.515625 -19.328125 L 7.25 -20.09375 L 7.265625 -20.046875 C 7.285156 -19.898438 7.320312 -19.71875 7.375 -19.5 C 7.4375 -19.28125 7.519531 -19.007812 7.625 -18.6875 C 7.738281 -18.375 7.882812 -18.003906 8.0625 -17.578125 C 8.238281 -17.160156 8.453125 -16.671875 8.703125 -16.109375 L 13.34375 -5.6875 L 13 -5.546875 L -1.90625 -11.796875 L 1.09375 -5.09375 C 1.34375 -4.53125 1.566406 -4.039062 1.765625 -3.625 C 1.960938 -3.21875 2.140625 -2.867188 2.296875 -2.578125 C 2.453125 -2.296875 2.59375 -2.0625 2.71875 -1.875 C 2.84375 -1.6875 2.953125 -1.53125 3.046875 -1.40625 L 3.0625 -1.359375 L 1.328125 -0.59375 L 1.3125 -0.640625 C 1.289062 -0.785156 1.253906 -0.96875 1.203125 -1.1875 C 1.148438 -1.414062 1.066406 -1.679688 0.953125 -1.984375 C 0.835938 -2.296875 0.695312 -2.660156 0.53125 -3.078125 C 0.363281 -3.503906 0.15625 -4 -0.09375 -4.5625 L -2.9375 -10.9375 C -3.1875 -11.5 -3.410156 -11.984375 -3.609375 -12.390625 C -3.816406 -12.796875 -4 -13.144531 -4.15625 -13.4375 C -4.3125 -13.738281 -4.453125 -13.976562 -4.578125 -14.15625 C -4.703125 -14.34375 -4.816406 -14.5 -4.921875 -14.625 L -4.9375 -14.671875 Z M -4.3125 -14.953125 "/></g></g></g></svg>